<svg width="208" height="61" viewBox="0 0 208 61" fill="none" xmlns="http://www.w3.org/2000/svg">
    <path
        d="M124.979 49H145.629L146.126 46.017H128.796L134.336 12.6364H131.016L124.979 49ZM152.482 49H155.661L160.206 21.7273H157.028L152.482 49ZM159.762 16.9865C161.04 16.9865 162.124 15.9744 162.159 14.767C162.195 13.4886 161.129 12.4411 159.815 12.4411C158.537 12.4411 157.454 13.4531 157.418 14.6605C157.383 15.9389 158.43 16.9865 159.762 16.9865ZM179.786 21.7273H173.714L174.264 18.3892C174.761 15.5305 176.59 13.9325 179.324 13.9325C180.372 13.9325 180.958 14.1811 181.437 14.3232L182.787 11.5533C182.201 11.2869 181.206 10.9496 179.537 10.9496C175.809 10.9496 171.92 13.3288 171.228 17.7322L170.571 21.7273H166.381L165.937 24.4794H170.109L166.025 49H169.186L173.252 24.4794H179.324L179.786 21.7273ZM191.381 49.5682C196.867 49.5682 201.004 46.603 202.815 43.1761L199.992 42.1996C198.536 44.6499 195.731 46.674 191.824 46.674C186.036 46.674 183.248 43.1406 184.314 36.3047H204.644L204.893 34.7422C206.42 25.6335 201.501 21.3544 195.589 21.3544C188.522 21.3544 182.662 27.267 181.295 35.5234C179.91 43.7976 183.746 49.5682 191.381 49.5682ZM184.793 33.517C185.912 28.6697 190.333 24.2308 195.162 24.2308C200.063 24.2308 202.762 28.2614 201.874 33.517H184.793Z"
        fill="#247772" />
    <circle cx="12.5" cy="30.5" r="11.5" fill="#FFFFDD" stroke="#FFFFDD" stroke-width="2" />
    <path d="M12.1727 51.989L7.87843 37.7394L16.8379 37.8565L12.1727 51.989Z" fill="#FFFFDD" />
    <path
        d="M64.6053 24C64.4988 17.3061 59.829 12.1392 52.052 12.1392C42.9256 12.1392 35.3084 19.3303 33.4263 30.6229C31.5087 42.1108 36.9242 49.4972 46.2104 49.4972C53.8453 49.4972 60.0598 44.3125 62.4036 37.6364H59.0655C57.2012 42.6257 52.1586 46.3722 46.3702 46.3722C39.5698 46.3722 34.9178 41.0277 36.5868 31.0135C38.2559 20.8572 44.861 15.2642 51.839 15.2642C57.4498 15.2642 61.1429 19.0284 61.3027 24H64.6053ZM67.6815 49H70.8597L75.4052 21.7273H72.2269L67.6815 49ZM74.9613 16.9865C76.2397 16.9865 77.3228 15.9744 77.3583 14.767C77.3938 13.4886 76.3285 12.4411 75.0146 12.4411C73.7362 12.4411 72.6531 13.4531 72.6175 14.6605C72.582 15.9389 73.6296 16.9865 74.9613 16.9865ZM94.5059 21.7273H88.7175L89.8006 15.1932H86.6223L85.5392 21.7273H81.4909L81.0293 24.4794H85.0953L82.0946 42.6257C81.3667 47.0824 84.4739 49.4084 87.954 49.4084C89.2679 49.4084 90.1912 49.1598 90.8837 48.929L90.6529 46.0703C90.1735 46.1768 89.6053 46.3189 88.7708 46.3189C86.6223 46.3189 84.7935 45.3068 85.3617 41.88L88.2559 24.4794H94.062L94.5059 21.7273ZM97.6708 59.2273C100.973 59.2273 103.85 57.3452 106.016 53.2791L122.795 21.7273H119.226L107.277 44.8807H107.046L102.784 21.7273H99.4996L104.897 49.142L103.406 51.9119C101.186 56.0135 99.0202 56.9013 96.0373 55.8714L94.7056 58.6591C95.2915 58.9609 96.4102 59.2273 97.6708 59.2273Z"
        fill="#FFFFDD" />
</svg>